<svg xmlns="http://www.w3.org/2000/svg" viewBox="0 0 30.27 33.19"><defs></defs><g id="Capa_2" data-name="Capa 2"><g id="Capa_1-2" data-name="Capa 1"><path class="cls-1" d="M0,10.58c0-1.7-.09-3.3,0-4.88A3,3,0,0,1,2.9,2.89c1-.09,2,0,3.09,0,0,1.82.14,3.73,2.49,3.71s2.44-1.88,2.45-3.67h8.38c.37,2.81,1,3.72,2.54,3.71s2-.84,2.52-3.68a27.2,27.2,0,0,1,3.38,0,2.8,2.8,0,0,1,2.43,2.55c.1,1.66,0,3.33,0,5.06Z"/><path class="cls-1" d="M22.62,30.88c.52-4.51.52-4.51,5.4-5.27V11.88h2.24v3.25c0,3.55,0,7.1,0,10.65a2.9,2.9,0,0,1-.94,2.33c-1.44,1.37-2.77,2.85-4.24,4.18a3.35,3.35,0,0,1-2,.86c-6.52.06-13,0-19.57,0A3.18,3.18,0,0,1,0,29.92C0,24,0,18.17,0,12.29a2.25,2.25,0,0,1,.09-.39H2.25v1.24c0,5.42,0,10.84,0,16.26,0,1,.35,1.55,1.46,1.54,6.1,0,12.21,0,18.31,0C22.2,30.93,22.38,30.9,22.62,30.88Z"/><path class="cls-1" d="M23,13.14c2.75,0,2.7,0,2.77,2.75,0,1.13-.22,1.6-1.43,1.49a28,28,0,0,0-3.55,0c-.59,0-.82-.23-.8-.81q0-1.32,0-2.64c0-.61.28-.79.84-.77C21.54,13.16,22.27,13.15,23,13.14Z"/><path class="cls-1" d="M12.35,17.35v-4.2c1.72,0,3.39,0,5.06,0,.2,0,.41.39.6.61,0,.05,0,.15,0,.23.16,3.33.16,3.33-3.18,3.33Z"/><path class="cls-1" d="M4.55,24.5h5.68v4.11c-1.74,0-3.44,0-5.14,0-.19,0-.5-.43-.52-.67C4.52,26.81,4.55,25.71,4.55,24.5Z"/><path class="cls-1" d="M12.35,28.62V24.53H18c0,1.18,0,2.31,0,3.44a.88.88,0,0,1-.56.62C15.75,28.64,14.08,28.62,12.35,28.62Z"/><path class="cls-1" d="M25.66,18.86v4.05h-5.6V18.86Z"/><path class="cls-1" d="M4.55,18.85h5.62V23c-1.68,0-3.38,0-5.07,0a.74.74,0,0,1-.52-.55C4.53,21.25,4.55,20.12,4.55,18.85Z"/><path class="cls-1" d="M12.34,22.88V18.81c1.74,0,3.44,0,5.14,0a.8.8,0,0,1,.51.56c.05,1.13,0,2.26,0,3.49Z"/><path class="cls-1" d="M7,2.82A10.58,10.58,0,0,1,7,1.33,1.38,1.38,0,0,1,8.42,0,1.39,1.39,0,0,1,9.94,1.39a18.41,18.41,0,0,1,0,3A1.36,1.36,0,0,1,8.48,5.69,1.41,1.41,0,0,1,7,4.3,14.61,14.61,0,0,1,7,2.82Z"/><path class="cls-1" d="M20.33,2.85c0-.45,0-.91,0-1.37A1.4,1.4,0,0,1,21.88,0a1.37,1.37,0,0,1,1.44,1.45c0,.92,0,1.83,0,2.75a1.49,1.49,0,0,1-3,0C20.31,3.77,20.33,3.31,20.33,2.85Z"/></g></g></svg>