<svg xmlns="http://www.w3.org/2000/svg" viewBox="0 0 41.95 47.4"><defs></defs><g id="Capa_2" data-name="Capa 2"><g id="Capa_1-2" data-name="Capa 1"><path class="cls-1" d="M41.67,5.89c1.06,4-1,6-4.38,7.76-5,2.57-9.85,5.6-14.75,8.44-2.35,1.37-2.36,1.87-.06,3.21,5.51,3.2,11,6.46,16.57,9.53C41,35.89,42,37.08,41.71,39.34a48.16,48.16,0,0,0,0,5.1c0,2.93-1.35,3.7-3.88,2.24q-13.71-7.89-27.4-15.83c-2.95-1.7-5.91-3.36-8.83-5.11-2-1.22-2.09-2.84-.05-4Q19.78,11.1,38.1.57c2.17-1.25,3.52-.4,3.56,2.13C41.68,3.77,41.67,4.83,41.67,5.89Z"/></g></g></svg>