<svg xmlns="http://www.w3.org/2000/svg" viewBox="0 0 29.06 20.43"><defs></defs><g id="Capa_2" data-name="Capa 2"><g id="Capa_1-2" data-name="Capa 1"><path class="cls-1" d="M1.54,0h26c-.22.24-.36.42-.52.58Q21.3,6.31,15.61,12.06c-.75.76-1.37.8-2.07.09L1.9.42C1.79.31,1.7.18,1.54,0Z"/><path class="cls-1" d="M27.34,20.43H1.75L10.36,12c.38.44.91,1.07,1.47,1.66a3.53,3.53,0,0,0,3.24,1.23,3.8,3.8,0,0,0,2.17-1.25c.56-.57,1.07-1.18,1.53-1.69Z"/><path class="cls-1" d="M0,18.45V2.12l8.25,8.24Z"/><path class="cls-1" d="M29.06,2.09V18.58L20.71,10.4Z"/></g></g></svg>