<svg xmlns="http://www.w3.org/2000/svg" viewBox="0 0 27.86 27.86"><defs></defs><g id="Capa_2" data-name="Capa 2"><g id="Capa_1-2" data-name="Capa 1"><path class="cls-1" d="M14.86,0V1.64c-7,.26-11.66,3.49-13,10.57A12,12,0,0,0,8.33,24.77,12.37,12.37,0,0,0,23.2,21.94l1.29,1.11c-.57.55-1.1,1.12-1.69,1.61a13.61,13.61,0,0,1-7.41,3.11,1.31,1.31,0,0,0-.28.09H12.75a1.91,1.91,0,0,0-.34-.1A13.83,13.83,0,0,1,.64,18.05c-.29-1-.43-2-.64-2.94V12.75a3.37,3.37,0,0,0,.1-.34A13.55,13.55,0,0,1,8.78,1a26.45,26.45,0,0,1,4.1-1Z"/><path class="cls-1" d="M27.86,13.62h-1.7L26,11.86l1.64-.29.24,1.31Z"/><path class="cls-1" d="M12.22,10.86c0-1.49,0-3,0-4.46,0-.78.3-1.18.86-1.17s.82.41.82,1.15c0,2.66,0,5.32,0,8a1.14,1.14,0,0,0,.68,1.2c1.58.85,3.12,1.76,4.68,2.65l.16.1c.55.34.73.83.46,1.28a.9.9,0,0,1-1.31.22c-1.13-.63-2.25-1.28-3.37-1.93-.77-.44-1.53-.89-2.31-1.31a1.14,1.14,0,0,1-.67-1.14C12.23,13.91,12.22,12.38,12.22,10.86Z"/><path class="cls-1" d="M25.34,5.89l-1.42,1L22.78,5.51,24,4.34Z"/><path class="cls-1" d="M16.62,2,17,.33l1.93.58-.61,1.6Z"/><path class="cls-1" d="M20.81,1.8l1.68,1.12-1,1.37L20,3.3Z"/><path class="cls-1" d="M26.68,19.59l-1,1.78-1.46-.91.83-1.56Z"/><path class="cls-1" d="M26.39,7.67l.78,1.87-1.62.55-.7-1.63Z"/><path class="cls-1" d="M25.72,17.18l.33-1.73,1.71.19-.38,2Z"/></g></g></svg>