<svg xmlns="http://www.w3.org/2000/svg" viewBox="0 0 25.51 27.57"><defs></defs><g id="Capa_2" data-name="Capa 2"><g id="Capa_1-2" data-name="Capa 1"><path class="cls-1" d="M14.88,27.57V17H10.63v10.6H3.24a1.06,1.06,0,0,1-1.11-1.12V17a1.06,1.06,0,0,1,1.12-1.11h19a1.05,1.05,0,0,1,1.11.86.82.82,0,0,1,0,.22V26.5a1,1,0,0,1-1.07,1.07H14.88Z"/><path class="cls-1" d="M14.88,14.82V10.58H10.63v4.24H1.12A1.07,1.07,0,0,1,0,13.69V10.62A1.06,1.06,0,0,1,1.13,9.51H24.39a1,1,0,0,1,1.1.88,5.88,5.88,0,0,1,0,.73v2.6a1.06,1.06,0,0,1-1.05,1.1H14.88Z"/><path class="cls-1" d="M11,5.48A1.28,1.28,0,0,1,12,5.25h1.73a1.16,1.16,0,0,1,.79.24l.24-.29L18.25.79A1.8,1.8,0,0,1,20,0a2.22,2.22,0,0,1,1,.49A6.74,6.74,0,0,1,23,3a3,3,0,0,1-.62,3.48A7,7,0,0,1,19.83,8.1a3.91,3.91,0,0,1-1.29.34c-.44,0-.88,0-1.32,0h-1L17.06,8a10.39,10.39,0,0,0,2.56-1.78,2.73,2.73,0,0,0,.7-1A1.24,1.24,0,0,0,20.14,4a4.12,4.12,0,0,0-.65-.67,1.16,1.16,0,0,0-1.36-.08c-.45.26-.88.55-1.31.85-.68.48-1.36,1-2,1.48l-.13.1a1.15,1.15,0,0,1,.23.82c0,.29,0,.57,0,.86a1.06,1.06,0,0,1-1.1,1.07h-2a1.08,1.08,0,0,1-1.15-1.14V6.38a1.08,1.08,0,0,1,.23-.69c-.24-.18-.46-.36-.69-.52-.88-.62-1.75-1.25-2.65-1.83a1.26,1.26,0,0,0-1.76.22,3,3,0,0,0-.4.47,1.31,1.31,0,0,0,0,1.48A4.76,4.76,0,0,0,6.78,7a14,14,0,0,0,2.4,1.39l.09.06H7.06a3.72,3.72,0,0,1-1.42-.36,7.09,7.09,0,0,1-2.18-1.3,3.58,3.58,0,0,1-1.2-2,3,3,0,0,1,.28-1.83,6.56,6.56,0,0,1,2-2.47A1.91,1.91,0,0,1,6.07,0,1.88,1.88,0,0,1,7.25.78c.83,1,1.66,2.06,2.48,3.1L10.9,5.33Z"/></g></g></svg>