<svg xmlns="http://www.w3.org/2000/svg" viewBox="0 0 39.07 22.56"><defs></defs><g id="Capa_2" data-name="Capa 2"><g id="Capa_1-2" data-name="Capa 1"><path class="cls-1" d="M0,19.47a19.48,19.48,0,0,1,5-13l4.38,4.4a13.54,13.54,0,0,0-2.37,4,14,14,0,0,0-.85,4.64Z"/><path class="cls-1" d="M29.62,10.78,34,6.39a19.68,19.68,0,0,1,5.06,13.09H32.88A13.36,13.36,0,0,0,29.62,10.78Z"/><path class="cls-1" d="M28.59,9.72a13.41,13.41,0,0,0-8.34-3.53V0A19.42,19.42,0,0,1,33,5.36Z"/><path class="cls-1" d="M18.83,0V6.19a13.39,13.39,0,0,0-8.36,3.54L6.13,5.31A19.36,19.36,0,0,1,18.83,0Z"/><path class="cls-1" d="M28.88,10.56l-2.05,2.67q-2.07,2.7-4.15,5.38a1.12,1.12,0,0,0-.25.85,2.91,2.91,0,1,1-5.81.27,2.82,2.82,0,0,1,2.72-3A2.87,2.87,0,0,0,21.27,16c2.38-1.77,4.78-3.53,7.17-5.29.12-.09.25-.17.38-.25Zm-8,9.12a1.39,1.39,0,1,0-1.44,1.37A1.41,1.41,0,0,0,20.92,19.68Z"/></g></g></svg>